<?xml version="1.0" encoding="UTF-8"?>
<svg xmlns="http://www.w3.org/2000/svg" viewBox="0 0 1100 650" width="1100" height="650">
  <style>
    text { font-family: "Helvetica Neue", Helvetica, Arial, sans-serif; }
  </style>
  <defs>
    <marker id="arrow-blue" markerWidth="10" markerHeight="7" refX="9" refY="3.5" orient="auto">
      <polygon points="0 0, 10 3.5, 0 7" fill="#2563eb"/>
    </marker>
    <marker id="arrow-green" markerWidth="10" markerHeight="7" refX="9" refY="3.5" orient="auto">
      <polygon points="0 0, 10 3.5, 0 7" fill="#16a34a"/>
    </marker>
    <marker id="arrow-purple" markerWidth="10" markerHeight="7" refX="9" refY="3.5" orient="auto">
      <polygon points="0 0, 10 3.5, 0 7" fill="#9333ea"/>
    </marker>
  </defs>
  <rect width="1100" height="650" fill="#ffffff"/>
  <text x="550" y="35" fill="#111827" font-size="18" font-weight="600" text-anchor="middle">Memory Hierarchy Flow</text>
  <text x="120" y="80" fill="#6b7280" font-size="13" font-weight="600" text-anchor="middle">Global Memory</text>
  <text x="420" y="80" fill="#6b7280" font-size="13" font-weight="600" text-anchor="middle">Registers</text>
  <text x="680" y="80" fill="#6b7280" font-size="13" font-weight="600" text-anchor="middle">Warp Lanes</text>
  <text x="930" y="80" fill="#6b7280" font-size="13" font-weight="600" text-anchor="middle">Shared Memory</text>
  <rect x="30" y="120" width="180" height="80" rx="8" fill="#fef2f2" stroke="#fca5a5" stroke-width="1.5"/>
  <text x="120" y="150" fill="#111827" font-size="13" font-weight="600" text-anchor="middle">mat_a [M,K]</text>
  <text x="120" y="170" fill="#6b7280" font-size="12" text-anchor="middle">bf16</text>
  <text x="120" y="188" fill="#6b7280" font-size="11" text-anchor="middle">row-major</text>
  <rect x="30" y="230" width="180" height="80" rx="8" fill="#fef2f2" stroke="#fca5a5" stroke-width="1.5"/>
  <text x="120" y="260" fill="#111827" font-size="13" font-weight="600" text-anchor="middle">mat_b [N,K]</text>
  <text x="120" y="280" fill="#6b7280" font-size="12" text-anchor="middle">bf16</text>
  <text x="120" y="298" fill="#6b7280" font-size="11" text-anchor="middle">col-major</text>
  <rect x="30" y="420" width="180" height="70" rx="8" fill="#dcfce7" stroke="#86efac" stroke-width="1.5"/>
  <text x="120" y="450" fill="#111827" font-size="13" font-weight="600" text-anchor="middle">out [M,N]</text>
  <text x="120" y="470" fill="#6b7280" font-size="12" text-anchor="middle">fp32</text>
  <rect x="320" y="140" width="200" height="60" rx="8" fill="#eff6ff" stroke="#bfdbfe" stroke-width="1.5"/>
  <text x="420" y="165" fill="#111827" font-size="13" font-weight="600" text-anchor="middle">a_float[8]</text>
  <text x="420" y="185" fill="#6b7280" font-size="12" text-anchor="middle">fp32</text>
  <rect x="320" y="230" width="200" height="60" rx="8" fill="#eff6ff" stroke="#bfdbfe" stroke-width="1.5"/>
  <text x="420" y="255" fill="#111827" font-size="13" font-weight="600" text-anchor="middle">b_float[8]</text>
  <text x="420" y="275" fill="#6b7280" font-size="12" text-anchor="middle">fp32</text>
  <rect x="320" y="320" width="200" height="60" rx="8" fill="#faf5ff" stroke="#d8b4fe" stroke-width="1.5"/>
  <text x="420" y="345" fill="#111827" font-size="13" font-weight="600" text-anchor="middle">acc[M]</text>
  <text x="420" y="365" fill="#6b7280" font-size="12" text-anchor="middle">fp32 accumulator</text>
  <rect x="580" y="320" width="200" height="80" rx="8" fill="#faf5ff" stroke="#d8b4fe" stroke-width="1.5"/>
  <text x="680" y="350" fill="#111827" font-size="13" font-weight="600" text-anchor="middle">shfl_xor reduce</text>
  <text x="680" y="370" fill="#6b7280" font-size="11" text-anchor="middle">5 stages:</text>
  <text x="680" y="386" fill="#6b7280" font-size="11" text-anchor="middle">16, 8, 4, 2, 1</text>
  <rect x="830" y="320" width="200" height="80" rx="8" fill="#dcfce7" stroke="#86efac" stroke-width="1.5"/>
  <text x="930" y="350" fill="#111827" font-size="13" font-weight="600" text-anchor="middle">sm_reduction[M][4]</text>
  <text x="930" y="370" fill="#6b7280" font-size="12" text-anchor="middle">shared mem</text>
  <text x="930" y="388" fill="#6b7280" font-size="11" text-anchor="middle">4 warp sums</text>
  <path d="M 210,160 L 250,160 L 250,170 L 320,170" stroke="#2563eb" stroke-width="1.5" fill="none" marker-end="url(#arrow-blue)"/>
  <rect x="235" y="152" width="75" height="16" fill="#ffffff" opacity="0.95"/>
  <text x="272" y="163" fill="#2563eb" font-size="11" text-anchor="middle">uint4 load</text>
  <path d="M 210,270 L 280,270 L 280,260 L 320,260" stroke="#2563eb" stroke-width="1.5" fill="none" marker-end="url(#arrow-blue)"/>
  <rect x="235" y="252" width="75" height="16" fill="#ffffff" opacity="0.95"/>
  <text x="272" y="263" fill="#2563eb" font-size="11" text-anchor="middle">uint4 load</text>
  <path d="M 470,200 L 470,235 L 460,235 L 460,320" stroke="#9333ea" stroke-width="1.5" fill="none" marker-end="url(#arrow-purple)"/>
  <path d="M 450,290 L 450,320" stroke="#9333ea" stroke-width="1.5" fill="none" marker-end="url(#arrow-purple)"/>
  <rect x="408" y="296" width="85" height="16" fill="#ffffff" opacity="0.95"/>
  <text x="450" y="307" fill="#9333ea" font-size="11" text-anchor="middle">FMA x VPT</text>
  <path d="M 520,350 L 580,350" stroke="#9333ea" stroke-width="1.5" fill="none" marker-end="url(#arrow-purple)"/>
  <rect x="528" y="342" width="60" height="16" fill="#ffffff" opacity="0.95"/>
  <text x="558" y="353" fill="#9333ea" font-size="11" text-anchor="middle">5 stages</text>
  <path d="M 780,360 L 830,360" stroke="#16a34a" stroke-width="1.5" fill="none" marker-end="url(#arrow-green)"/>
  <rect x="782" y="352" width="80" height="16" fill="#ffffff" opacity="0.95"/>
  <text x="822" y="363" fill="#16a34a" font-size="11" text-anchor="middle">lane 0 store</text>
  <path d="M 930,400 L 930,530 L 210,530 L 210,455" stroke="#16a34a" stroke-width="1.5" fill="none" marker-end="url(#arrow-green)"/>
  <rect x="880" y="522" width="75" height="16" fill="#ffffff" opacity="0.95"/>
  <text x="917" y="533" fill="#16a34a" font-size="11" text-anchor="middle">tid 0 sum</text>
  <g transform="translate(40, 560)">
    <line x1="0" y1="8" x2="35" y2="8" stroke="#2563eb" stroke-width="1.5" marker-end="url(#arrow-blue)"/>
    <text x="40" y="12" fill="#6b7280" font-size="12">Load from global</text>
    <line x1="0" y1="28" x2="35" y2="28" stroke="#9333ea" stroke-width="1.5" marker-end="url(#arrow-purple)"/>
    <text x="40" y="32" fill="#6b7280" font-size="12">Compute/reduce</text>
    <line x1="200" y1="8" x2="235" y2="8" stroke="#16a34a" stroke-width="1.5" marker-end="url(#arrow-green)"/>
    <text x="240" y="12" fill="#6b7280" font-size="12">Store result</text>
  </g>
</svg>